<svg version="1.1" xmlns="http://www.w3.org/2000/svg" viewBox="0 0 466.30698992004614 372.5590679224581" width="932.6139798400923" height="745.1181358449162">
  <!-- svg-source:excalidraw -->
  
  <defs>
    <style class="style-fonts">
      
    </style>
    
  </defs>
  <rect x="0" y="0" width="466.30698992004614" height="372.5590679224581" fill="#ffffff"></rect><g stroke-linecap="round"><g transform="translate(59.78102068683131 9.949892996475) rotate(0 -0.912109375 174.689453125)"><path d="M0.35 0.72 C0.23 58.94, -1.18 290.9, -1.56 349.11 M-0.92 0.05 C-1.11 58.46, -2.06 292.52, -2.37 350.51" stroke="#1e1e1e" stroke-width="2" fill="none"></path></g></g><mask></mask><g stroke-linecap="round"><g transform="translate(22.994710310082837 361.1178460870683) rotate(0 216.365234375 -0.35546875)"><path d="M0.47 -0.77 C72.85 -0.98, 361.29 -1.07, 433.31 -0.92 M-0.75 1.44 C71.61 1.38, 360.59 1.05, 432.67 0.51" stroke="#1e1e1e" stroke-width="2" fill="none"></path></g></g><mask></mask><g stroke-linecap="round"><g transform="translate(60.30445818683131 322.574892996475) rotate(0 17.47265625 19.611328125)"><path d="M-1.06 0.46 C4.92 6.96, 29.03 31.65, 34.94 38.1 M0.59 -0.34 C6.48 6.34, 28.53 32.24, 33.98 39.04" stroke="#1e1e1e" stroke-width="2" fill="none"></path></g></g><mask></mask><g stroke-linecap="round"><g transform="translate(59.31227068683131 318.664736746475) rotate(0 -17.779296875 21.556640625)"><path d="M-1.02 1.17 C-6.69 8.59, -29.47 36.86, -35.06 43.85 M0.64 0.73 C-5.06 7.87, -29.83 34.83, -35.75 42.11" stroke="#1e1e1e" stroke-width="2" fill="none"></path></g></g><mask></mask><g stroke-linecap="round"><g transform="translate(61.04792106343439 322.50589657427713) rotate(0 17.47265625 19.611328125)"><path d="M0.98 -0.02 C6.95 6.58, 30.14 33.04, 35.94 39.77 M0.03 -1.08 C5.93 5.14, 29.61 31.31, 35.51 37.94" stroke="#1e1e1e" stroke-width="2" fill="none"></path></g></g><mask></mask><g stroke-linecap="round"><g transform="translate(11.558364436831312 51.695986746475) rotate(0 221.93359375 0.095703125)"><path d="M-0.07 0.8 C74.03 0.98, 369.86 0.66, 443.66 0.49 M-1.56 0.17 C72.43 0.02, 368.17 -1.59, 442.6 -1.48" stroke="#1e1e1e" stroke-width="2" fill="none"></path></g></g><mask></mask><g stroke-linecap="round"><g transform="translate(62.62477068683131 94.899111746475) rotate(0 14.18359375 -21.138671875)"><path d="M-0.41 -0.03 C-0.4 -0.14, -3.73 6.08, 1.04 -0.86 C5.81 -7.8, 23.82 -34.84, 28.19 -41.67 M1.57 -1.09 C1.44 -1.05, -3.66 7.33, 0.64 0.23 C4.93 -6.88, 22.95 -36.91, 27.34 -43.7" stroke="#1e1e1e" stroke-width="2" fill="none"></path></g></g><mask></mask><g stroke-linecap="round"><g transform="translate(289.8005519368313 52.504580496475) rotate(0 -0.09765625 26.205078125)"><path d="M-0.72 -0.21 C-0.7 8.73, 0.67 43.65, 0.85 52.44 M1.1 -1.36 C1 7.88, 0.66 44.79, 0.46 53.99" stroke="#1e1e1e" stroke-width="2" fill="none"></path></g></g><mask></mask></svg>