<svg version="1.1" xmlns="http://www.w3.org/2000/svg" viewBox="0 0 466.30698992004614 372.5590679224581" width="932.6139798400923" height="745.1181358449162">
  <!-- svg-source:excalidraw -->
  
  <defs>
    <style class="style-fonts">
      
    </style>
    
  </defs>
  <rect x="0" y="0" width="466.30698992004614" height="372.5590679224581" fill="#ffffff"></rect><g stroke-linecap="round"><g transform="translate(59.78102068683131 9.949892996475) rotate(0 -0.912109375 174.689453125)"><path d="M0.35 0.72 C0.23 58.94, -1.18 290.9, -1.56 349.11 M-0.92 0.05 C-1.11 58.46, -2.06 292.52, -2.37 350.51" stroke="#1e1e1e" stroke-width="2" fill="none"></path></g></g><mask></mask><g stroke-linecap="round"><g transform="translate(22.994710310082837 361.1178460870683) rotate(0 216.365234375 -0.35546875)"><path d="M0.47 -0.77 C72.85 -0.98, 361.29 -1.07, 433.31 -0.92 M-0.75 1.44 C71.61 1.38, 360.59 1.05, 432.67 0.51" stroke="#1e1e1e" stroke-width="2" fill="none"></path></g></g><mask></mask><g stroke-linecap="round"><g transform="translate(60.30445818683131 322.574892996475) rotate(0 17.47265625 19.611328125)"><path d="M-1.06 0.46 C4.92 6.96, 29.03 31.65, 34.94 38.1 M0.59 -0.34 C6.48 6.34, 28.53 32.24, 33.98 39.04" stroke="#1e1e1e" stroke-width="2" fill="none"></path></g></g><mask></mask><g stroke-linecap="round"><g transform="translate(59.31227068683131 318.664736746475) rotate(0 -17.779296875 21.556640625)"><path d="M-1.02 1.17 C-6.69 8.59, -29.47 36.86, -35.06 43.85 M0.64 0.73 C-5.06 7.87, -29.83 34.83, -35.75 42.11" stroke="#1e1e1e" stroke-width="2" fill="none"></path></g></g><mask></mask><g stroke-linecap="round"><g transform="translate(61.04792106343439 322.50589657427713) rotate(0 17.47265625 19.611328125)"><path d="M0.98 -0.02 C6.95 6.58, 30.14 33.04, 35.94 39.77 M0.03 -1.08 C5.93 5.14, 29.61 31.31, 35.51 37.94" stroke="#1e1e1e" stroke-width="2" fill="none"></path></g></g><mask></mask><g stroke-linecap="round"><g transform="translate(11.558364436831312 51.695986746475) rotate(0 221.93359375 0.095703125)"><path d="M-0.07 0.8 C74.03 0.98, 369.86 0.66, 443.66 0.49 M-1.56 0.17 C72.43 0.02, 368.17 -1.59, 442.6 -1.48" stroke="#1e1e1e" stroke-width="2" fill="none"></path></g></g><mask></mask><g stroke-linecap="round"><g transform="translate(62.62477068683131 94.899111746475) rotate(0 14.18359375 -21.138671875)"><path d="M-0.41 -0.03 C-0.4 -0.14, -3.73 6.08, 1.04 -0.86 C5.81 -7.8, 23.82 -34.84, 28.19 -41.67 M1.57 -1.09 C1.44 -1.05, -3.66 7.33, 0.64 0.23 C4.93 -6.88, 22.95 -36.91, 27.34 -43.7" stroke="#1e1e1e" stroke-width="2" fill="none"></path></g></g><mask></mask><g stroke-linecap="round"><g transform="translate(289.8005519368313 52.504580496475) rotate(0 -0.09765625 26.205078125)"><path d="M-0.72 -0.21 C-0.7 8.73, 0.67 43.65, 0.85 52.44 M1.1 -1.36 C1 7.88, 0.66 44.79, 0.46 53.99" stroke="#1e1e1e" stroke-width="2" fill="none"></path></g></g><mask></mask><g stroke-linecap="round" transform="translate(262.4372706868313 104.473330496475) rotate(0 29.640625 36.3203125)"><path d="M31.08 -0.34 C36.55 -0.3, 43.48 4.58, 48.11 9.1 C52.75 13.62, 57.33 19.99, 58.88 26.8 C60.43 33.61, 59.65 43.22, 57.42 49.97 C55.19 56.71, 50.46 63.37, 45.51 67.26 C40.56 71.15, 33.65 73.95, 27.72 73.3 C21.8 72.66, 14.56 68.03, 9.98 63.38 C5.4 58.73, 1.51 52.15, 0.23 45.42 C-1.06 38.69, 0.04 29.61, 2.27 22.98 C4.5 16.36, 8.16 9.4, 13.63 5.67 C19.1 1.94, 31.14 1.18, 35.1 0.58 C39.07 -0.02, 37.62 1.34, 37.43 2.08 M34.79 0.02 C40.25 0.74, 45.91 5.86, 50.2 11.33 C54.49 16.8, 59.58 25.75, 60.54 32.84 C61.49 39.93, 59.19 47.9, 55.93 53.88 C52.67 59.87, 46.29 65.85, 40.97 68.78 C35.65 71.71, 29.76 72.98, 24.02 71.46 C18.28 69.94, 10.5 64.62, 6.55 59.65 C2.61 54.67, 0.7 48.47, 0.36 41.62 C0.02 34.77, 1.56 24.99, 4.52 18.56 C7.48 12.12, 13.02 6.16, 18.12 2.98 C23.21 -0.2, 32.29 -0.3, 35.1 -0.53 C37.91 -0.76, 34.82 0.68, 34.98 1.59" stroke="#1e1e1e" stroke-width="2" fill="none"></path></g><g stroke-linecap="round"><g transform="translate(292.6774599973578 174.53269614996384) rotate(0 -0.09765625 26.205078125)"><path d="M-0.54 0.86 C-0.75 9.49, -0.23 43.07, -0.34 51.5 M1.38 0.26 C0.91 9.05, -1.33 43.9, -1.36 52.56" stroke="#1e1e1e" stroke-width="2" fill="none"></path></g></g><mask></mask><g stroke-linecap="round"><g transform="translate(292.6482081868313 227.418642996475) rotate(0 -19.4453125 17.236328125)"><path d="M-0.96 1.01 C-7.12 6.88, -31.48 28.96, -37.91 34.49 M0.73 0.49 C-5.41 6.63, -31.44 30.22, -38.35 36.04" stroke="#1e1e1e" stroke-width="2" fill="none"></path></g></g><mask></mask><g stroke-linecap="round"><g transform="translate(294.0466456868313 231.227236746475) rotate(0 18.50390625 16.935546875)"><path d="M0.93 -0.43 C7.19 5.22, 31.08 29.2, 37.15 34.84 M-0.03 -1.7 C6.1 3.54, 30.15 27.19, 36.28 33.23" stroke="#1e1e1e" stroke-width="2" fill="none"></path></g></g><mask></mask></svg>